<svg xmlns="http://www.w3.org/2000/svg" version="1.1" xmlns:xlink="http://www.w3.org/1999/xlink" xmlns:svgjs="http://svgjs.dev/svgjs" width="2000" height="1247" viewBox="0 0 2000 1247"><g transform="matrix(1,0,0,1,-1.2121212121212466,0.504858299595071)"><svg viewBox="0 0 396 247" data-background-color="#ffffff" preserveAspectRatio="xMidYMid meet" height="1247" width="2000" xmlns="http://www.w3.org/2000/svg" xmlns:xlink="http://www.w3.org/1999/xlink"><g id="tight-bounds" transform="matrix(1,0,0,1,0.2400000000000091,-0.09999999999999432)"><svg viewBox="0 0 395.52 247.2" height="247.2" width="395.52"><g><svg></svg></g><g><svg viewBox="0 0 395.52 247.2" height="247.2" width="395.52"><g transform="matrix(1,0,0,1,75.54432,98.26958388758783)"><svg viewBox="0 0 244.43135999999998 50.66083222482435" height="50.66083222482435" width="244.43135999999998"><g><svg viewBox="0 0 244.43135999999998 50.66083222482435" height="50.66083222482435" width="244.43135999999998"><g><svg viewBox="0 0 244.43135999999998 50.66083222482435" height="50.66083222482435" width="244.43135999999998"><g><svg viewBox="0 0 244.43135999999998 50.66083222482435" height="50.66083222482435" width="244.43135999999998"><g id="textblocktransform"><svg viewBox="0 0 244.43135999999998 50.66083222482435" height="50.66083222482435" width="244.43135999999998" id="textblock"><g><svg viewBox="0 0 244.43135999999998 50.66083222482435" height="50.66083222482435" width="244.43135999999998"><g transform="matrix(1,0,0,1,0,0)"><svg width="244.43135999999998" viewBox="4.21999979019165 -34.54999923706055 208.47999572753906 43.220001220703125" height="50.66083222482435" data-palette-color="#000000"><path d="M20.83 0.46L20.83 0.46Q17.43 0.46 14.26-1.07L14.26-1.07 14.26 0 4.22 0 4.22-34.55 14.26-34.55 14.26-24.83Q17.36-26.51 20.75-26.51 24.15-26.51 26.71-25.51 29.27-24.51 31.1-22.75L31.1-22.75Q34.89-19.04 34.89-13.26L34.89-13.26Q34.89-7.42 31.15-3.56L31.15-3.56Q27.29 0.46 20.83 0.46ZM20.75-24.73L20.75-24.73Q17.14-24.73 14.26-22.73L14.26-22.73 14.26-3.15Q17.46-1.34 21.44-1.34L21.44-1.34 22.07-1.34Q22.36-1.34 22.63-1.39L22.63-1.39 22.63-24.58Q21.7-24.73 20.75-24.73ZM41.16 0L41.16-34.55 51.66-34.55 51.66 0 41.16 0ZM57.39-13.18L57.39-13.18Q57.39-16.11 58.45-18.52 59.52-20.92 61.37-22.71L61.37-22.71Q65.38-26.51 71.43-26.51L71.43-26.51Q77.61-26.51 81.49-22.56L81.49-22.56Q85.2-18.82 85.2-13.11L85.2-13.11Q85.2-7.37 81.39-3.52L81.39-3.52Q77.46 0.46 71.33 0.46L71.33 0.46Q65.35 0.46 61.42-3.32L61.42-3.32Q57.39-7.23 57.39-13.18ZM70.65-24.71L70.65-1.37Q70.84-1.34 71.04-1.34L71.04-1.34 71.38-1.34Q76.31-1.34 79.66-4.39L79.66-4.39Q83.22-7.69 83.22-13.04L83.22-13.04Q83.22-18.26 79.88-21.51L79.88-21.51Q76.58-24.73 71.36-24.73L71.36-24.73 70.99-24.73Q70.82-24.73 70.65-24.71L70.65-24.71ZM96.77-7.96L96.77-7.96Q94.6-7.3 94.6-6.52L94.6-6.52Q94.6-5.76 95.87-5.47L95.87-5.47Q98.33-4.88 102.65-4.77 106.97-4.66 109.16-4.11 111.35-3.56 112.64-2.73L112.64-2.73Q114.98-1.2 114.98 1.34L114.98 1.34Q114.98 4.52 111.83 6.49L111.83 6.49Q108.34 8.67 101.99 8.67L101.99 8.67Q95.43 8.67 91.15 6.71L91.15 6.71Q89.62 5.96 89.62 5L89.62 5Q89.62 4.59 89.92 4.35 90.23 4.1 90.57 4.1L90.57 4.1Q90.98 4.1 91.52 4.42L91.52 4.42Q92.77 5.13 93.83 5.6 94.89 6.08 97.16 6.52 99.43 6.96 101.54 6.96 103.65 6.96 104.99 6.77 106.32 6.59 107.19 6.35L107.19 6.35Q108.93 5.83 108.93 5.2L108.93 5.2Q108.93 4.61 108.59 4.35 108.24 4.08 107.7 3.87 107.15 3.66 106.17 3.49L106.17 3.49Q104.17 3.15 100.72 2.98 97.28 2.81 95.28 2.31 93.28 1.81 92.01 1.03L92.01 1.03Q89.54-0.46 89.54-3L89.54-3Q89.54-6.67 94.5-8.94L94.5-8.94Q92.23-10.18 90.89-12.22 89.54-14.26 89.54-16.64 89.54-19.02 90.43-20.76 91.33-22.51 92.94-23.78L92.94-23.78Q96.33-26.51 101.7-26.51L101.7-26.51Q104.09-26.51 106.51-25.78L106.51-25.78Q109.98-29.13 112.93-29.13L112.93-29.13Q114.18-29.13 114.78-28.71 115.37-28.3 115.37-27.66L115.37-27.66Q115.37-27.03 114.96-26.75 114.54-26.46 114.18-26.46L114.18-26.46Q113.52-26.46 113.05-26.61L113.05-26.61Q112.37-26.86 111.66-26.86L111.66-26.86Q110.34-26.86 108.34-25.02L108.34-25.02Q112.32-23.07 113.54-19.41L113.54-19.41Q113.93-18.19 113.93-16.42 113.93-14.65 112.91-12.89 111.88-11.13 110.17-9.86L110.17-9.86Q106.61-7.23 101.8-7.23L101.8-7.23Q99.26-7.18 96.77-7.96ZM101.9-24.78L101.9-9.01Q105.85-9.06 108.71-10.94L108.71-10.94Q112-13.09 112-16.75 112-20.41 108.76-22.66L108.76-22.66Q105.78-24.71 101.9-24.78L101.9-24.78ZM120.69 0L120.69-34.55 130.85-34.55Q137.95-34.55 141.27-33.54L141.27-33.54Q145.06-32.37 147.12-30.54 149.18-28.71 150.36-26.76L150.36-26.76Q152.75-22.78 152.75-17.72L152.75-17.72Q152.75-9.77 147.04-4.83L147.04-4.83Q142.98-1.29 137.49-0.46L137.49-0.46Q134.44 0 128.95 0L128.95 0 120.69 0ZM133.14-32.69L133.14-2.03Q133.53-2 133.85-2L133.85-2 134.41-2Q141.03-2 145.72-6.13L145.72-6.13Q150.67-10.47 150.67-17.68L150.67-17.68Q150.67-22.22 148.5-25.85L148.5-25.85Q145.35-31.15 138.54-32.28L138.54-32.28Q136.32-32.64 133.14-32.69L133.14-32.69ZM181.77-5.93L181.77-5.93Q182.73-5.93 182.73-5.05L182.73-5.05Q182.73-4.39 181.87-3.49L181.87-3.49Q178.01 0.46 171.3 0.46L171.3 0.46Q165.27 0.46 161.14-3.17L161.14-3.17Q156.87-6.96 156.87-12.74L156.87-12.74Q156.87-18.65 160.73-22.46L160.73-22.46Q164.81-26.51 171.57-26.51L171.57-26.51Q176.99-26.51 180.68-23.22L180.68-23.22Q184.66-19.68 184.66-13.92L184.66-13.92Q184.66-13.09 184.61-12.16L184.61-12.16 168.49-12.16 168.49-1.68Q170.15-1.34 172.23-1.34L172.23-1.34Q176.62-1.34 179.72-4.25L179.72-4.25Q180.36-4.88 180.63-5.25L180.63-5.25Q181.19-5.93 181.77-5.93ZM175.26-13.94L175.26-24.27Q173.67-24.73 171.67-24.73 169.67-24.73 168.49-24.46L168.49-24.46 168.49-13.94 175.26-13.94ZM200.13 1.1L186.73-26.07 197.79-26.07 204.43-12.38 208.6-20.68Q209.9-23.34 210.23-24.63 210.56-25.93 210.89-26.22 211.22-26.51 211.69-26.51 212.17-26.51 212.44-26.2 212.7-25.88 212.7-25.56 212.7-25.24 212.64-24.93 212.58-24.61 212.41-24.07L212.41-24.07Q212.05-23.07 210.87-20.61L210.87-20.61 200.13 1.1Z" opacity="1" transform="matrix(1,0,0,1,0,0)" fill="#000000" class="wordmark-text-0" data-fill-palette-color="primary" id="text-0"></path></svg></g></svg></g></svg></g></svg></g></svg></g></svg></g></svg></g><g><path d="M0 123.6c0-68.262 55.338-123.6 123.6-123.6 57.445 0 105.737 39.188 119.6 92.29h-2.363c-13.806-51.826-61.062-90.005-117.237-90.006-67.001 0-121.316 54.315-121.316 121.316 0 67.001 54.315 121.316 121.316 121.316 56.174 0 103.431-38.18 117.237-90.006h2.363c-13.863 53.101-62.155 92.29-119.6 92.29-68.262 0-123.6-55.338-123.6-123.6z" fill="#000000" stroke="transparent" data-fill-palette-color="tertiary"></path></g></svg></g><defs></defs></svg><rect width="395.52" height="247.2" fill="none" stroke="none" visibility="hidden"></rect></g></svg></g></svg>